<?xml version="1.0" encoding="UTF-8" standalone="no"?>
<!-- Created with Inkscape (http://www.inkscape.org/) -->

<svg
   width="145.90166mm"
   height="40.273811mm"
   viewBox="0 0 145.90166 40.273811"
   version="1.1"
   id="svg5"
   sodipodi:docname="fonts white objectified.svg"
   inkscape:version="1.1 (c68e22c387, 2021-05-23)"
   xmlns:inkscape="http://www.inkscape.org/namespaces/inkscape"
   xmlns:sodipodi="http://sodipodi.sourceforge.net/DTD/sodipodi-0.dtd"
   xmlns="http://www.w3.org/2000/svg"
   xmlns:svg="http://www.w3.org/2000/svg">
  <sodipodi:namedview
     id="namedview7"
     pagecolor="#505050"
     bordercolor="#eeeeee"
     borderopacity="1"
     inkscape:pageshadow="0"
     inkscape:pageopacity="0"
     inkscape:pagecheckerboard="0"
     inkscape:document-units="mm"
     showgrid="false"
     inkscape:zoom="1.4142136"
     inkscape:cx="420.37498"
     inkscape:cy="112.78353"
     inkscape:window-width="2560"
     inkscape:window-height="1017"
     inkscape:window-x="-8"
     inkscape:window-y="-8"
     inkscape:window-maximized="1"
     inkscape:current-layer="text10593"
     width="177.753mm" />
  <defs
     id="defs2" />
  <g
     inkscape:label="Layer 1"
     inkscape:groupmode="layer"
     id="layer1">
    <g
       aria-label="Sprite"
       id="text10593"
       style="font-size:35.8218px;line-height:1.25;font-family:'Modern Day Maharaja';-inkscape-font-specification:'Modern Day Maharaja';fill:#b4b4b4;stroke-width:0.223887">
      <path
         d="m 71.319485,35.661075 v -3.979228 h 7.958457 v -5.96447 q 0,-0.822082 -0.577207,-1.399289 Q 78.114783,23.732136 77.2927,23.732136 H 71.319485 V 9.8004642 q 0,-0.8220823 0.585952,-1.4080346 0.577207,-0.5859523 1.408035,-0.5859523 H 83.25717 V 11.785706 H 77.2927 q -0.822082,0 -1.408034,0.585952 -0.585953,0.585952 -0.585953,1.408034 v 5.973216 h 5.973216 q 0.822082,0 1.408034,0.577206 0.577207,0.585953 0.577207,1.408035 v 13.922926 z"
         id="path31551" />
      <path
         d="M 84.254164,35.661075 V 31.681847 H 98.17709 v 3.979228 z M 93.200868,19.752908 V 15.773679 H 89.22164 v 3.979229 z m -7.958456,9.943698 V 13.779692 h 11.937685 v 5.973216 q 0,0.822082 -0.585953,1.408034 -0.585952,0.577207 -1.408034,0.577207 h -5.96447 v 7.958457 z m -0.988248,-17.9109 V 7.8064773 H 98.17709 v 3.9792287 z"
         id="path31553" />
      <path
         d="m 98.177089,35.661075 v -3.979228 h 13.922921 v 3.979228 z m 8.946701,-15.908167 v -3.979229 h -3.97923 v 3.979229 z m -7.958453,9.943698 V 13.779692 h 11.937683 v 5.973216 q 0,0.822082 -0.58595,1.408034 -0.58595,0.577207 -1.40804,0.577207 0.83083,0 1.40804,0.585952 0.58595,0.585953 0.58595,1.408035 v 5.96447 h -3.97923 v -5.96447 q 0,-0.822082 -0.58595,-1.408035 -0.58595,-0.585952 -1.40803,-0.585952 h -1.98525 v 7.958457 z m -0.988248,-17.9109 V 7.8064773 h 13.922921 v 3.9792287 z"
         id="path31555" />
      <path
         d="m 112.10002,35.661075 v -3.979228 h 5.95572 v 3.979228 z m 0.98824,-5.964469 V 13.779692 h 3.97923 v 15.916914 z m -0.98824,-17.9109 V 7.8064773 h 5.95572 v 3.9792287 z"
         id="path31557"
         sodipodi:nodetypes="ccccccccccccccc" />
      <path
         d="m 118.05574,35.661075 v -3.979228 h 13.923 v 3.979228 z m 4.96764,-5.964469 V 17.758921 h -3.97964 v -3.979229 h 11.938 v 3.979229 h -3.97915 v 11.937685 z m -4.96764,-17.9109 V 7.806477 h 13.923 v 3.979229 z"
         id="path9573"
         sodipodi:nodetypes="ccccccccccccccccccc"
         style="font-size:35.8218px;line-height:1.25;font-family:'Modern Day Maharaja';-inkscape-font-specification:'Modern Day Maharaja';fill:#b4b4b4;stroke-width:0.223887" />
      <path
         d="m 131.97874,35.661075 v -3.979228 h 13.92292 v 3.979228 z m 0.98824,-5.964469 V 13.779692 h 11.93769 v 1.993987 h -7.95846 v 1.985242 h 7.95846 v 1.993987 h -7.95846 v 7.958456 h 7.95846 v 1.985242 z m -0.98824,-17.9109 V 7.8064773 h 13.92292 v 3.9792287 z"
         id="path31561" />
      <rect
         style="fill:#000000;stroke-width:0.2;paint-order:stroke fill markers"
         id="rect1798"
         width="61.647495"
         height="3.979228"
         x="84.254166"
         y="31.681847" />
      <path
         style="fill:#b4b4b4;fill-opacity:1;stroke-width:0.133626;paint-order:stroke fill markers"
         d="m 318.5516,127.27922 v -7.42462 h 116.40746 116.40745 v 7.42462 7.42462 H 434.95906 318.5516 Z"
         id="path8646"
         transform="scale(0.26458333)" />
      <path
         style="font-size:35.8218px;line-height:1.25;font-family:'Modern Day Maharaja';-inkscape-font-specification:'Modern Day Maharaja';fill:#b4b4b4;fill-opacity:1;stroke-width:0.0353552;paint-order:stroke fill markers"
         d="m 84.254164,9.8212753 v -1.964431 h 30.799476 30.79947 v 1.964431 1.9644307 H 115.05364 84.254164 Z"
         id="path8646-9" />
    </g>
    <g
       aria-label=".pk"
       id="text37751"
       style="font-size:43.6336px;line-height:1.25;font-family:'Neutraliser Sans';-inkscape-font-specification:'Neutraliser Sans';fill:#b4b4b4;stroke-width:0.227258">
      <path
         d="m 2.705283,30.848954 q 0,0.567237 -0.3927023,0.959939 -0.3927024,0.392702 -0.9599392,0.392702 -0.56723678,0 -0.95993917,-0.392702 Q -5.2452087e-8,31.416191 -5.2452087e-8,30.848954 q 0,-0.567237 0.392702382452087,-0.959939 0.39270239,-0.392703 0.95993917,-0.392703 0.5672368,0 0.9599392,0.392703 0.3927023,0.392702 0.3927023,0.959939 z"
         id="path836" />
      <path
         d="m 24.085735,25.482021 q 0,1.396275 -0.523603,2.618016 -0.523604,1.221741 -1.439909,2.138046 -0.916306,0.916306 -2.138047,1.439909 -1.22174,0.523603 -2.618015,0.523603 h -3.359787 q -1.963512,0 -3.577956,-1.003572 -1.5708091,-1.047207 -2.4434811,-2.792551 v 11.170201 q 0,0.698138 -0.6981375,0.698138 -0.2618016,0 -0.4799696,-0.174534 Q 6.6322954,39.924742 6.6322954,39.575673 V 8.7267194 q 0,-0.3490688 0.1745344,-0.5236032 0.218168,-0.1745344 0.4799696,-0.1745344 0.6981375,0 0.6981375,0.6981376 V 11.824705 Q 8.8139753,10.079361 10.428418,9.0757882 12.042862,8.0285818 14.006374,8.0285818 h 3.359787 q 1.396275,0 2.618015,0.5236032 1.221741,0.5236032 2.138047,1.4399088 0.916305,0.9163052 1.439909,2.1380462 0.523603,1.221741 0.523603,2.618016 z M 22.733093,14.748156 q 0,-1.09084 -0.436336,-2.050779 Q 21.904055,11.693804 21.162284,10.952033 20.420512,10.210262 19.41694,9.8175594 18.457001,9.3812234 17.366161,9.3812234 H 13.35187 q -1.134474,0 -2.094413,0.436336 -0.959939,0.3927026 -1.7017105,1.1344736 -0.7417712,0.741771 -1.1781072,1.745344 -0.3927024,0.959939 -0.3927024,2.050779 v 10.733865 q 0,1.134474 0.3927024,2.094413 0.436336,0.959939 1.1781072,1.70171 0.7417715,0.741771 1.7017105,1.178107 0.959939,0.392703 2.094413,0.392703 h 4.014291 q 1.09084,0 2.050779,-0.392703 1.003572,-0.436336 1.745344,-1.178107 0.741771,-0.741771 1.134473,-1.70171 0.436336,-0.959939 0.436336,-2.094413 z"
         id="path838" />
      <path
         d="m 46.775143,31.547091 q 0,0.261802 -0.218168,0.47997 -0.174535,0.174534 -0.436336,0.174534 -0.392703,0 -0.567237,-0.261801 L 35.212239,17.278905 30.674345,20.464157 v 11.082934 q 0,0.261802 -0.218168,0.47997 -0.174535,0.174534 -0.47997,0.174534 -0.261801,0 -0.479969,-0.174534 -0.174535,-0.218168 -0.174535,-0.47997 V 0.65450372 q 0,-0.26180159 0.174535,-0.43633599 Q 29.714406,-2.5939941e-7 29.976207,-2.5939941e-7 q 0.305435,0 0.47997,0.21816798939941 0.218168,0.1745344 0.218168,0.43633599 V 18.849714 L 45.727936,8.1594826 q 0.130901,-0.1309008 0.392703,-0.1309008 0.261801,0 0.436336,0.218168 0.218168,0.1745344 0.218168,0.4799696 0,0.3490688 -0.305436,0.5236032 L 36.303079,16.4935 46.644242,31.154389 q 0.130901,0.218168 0.130901,0.392702 z"
         id="path840" />
    </g>
    <g
       aria-label="u"
       id="text39195"
       style="font-size:43.6336px;line-height:1.25;font-family:'Neutraliser Sans';-inkscape-font-specification:'Neutraliser Sans';fill:#008080;stroke-width:0.227258">
      <path
         d="m 68.157065,31.547091 q 0,0.305436 -0.218168,0.47997 -0.174535,0.174534 -0.436336,0.174534 -0.698138,0 -0.698138,-0.654504 v -3.141619 q -0.829038,1.745344 -2.443481,2.792551 -1.614444,1.003572 -3.577955,1.003572 h -4.712429 q -1.134474,0 -2.094413,-0.392702 -0.959939,-0.436336 -1.70171,-1.178107 -0.741771,-0.741771 -1.178107,-1.701711 -0.392703,-0.959939 -0.392703,-2.094412 V 8.7267194 q 0,-0.3490688 0.174535,-0.5236032 0.218168,-0.1745344 0.479969,-0.1745344 0.698138,0 0.698138,0.6981376 V 26.834663 q 0,0.829038 0.305435,1.570809 0.305435,0.741771 0.829038,1.309008 0.567237,0.523603 1.309008,0.829039 0.741772,0.305435 1.57081,0.305435 h 5.366933 q 1.090839,0 2.050779,-0.392703 1.003572,-0.436336 1.745344,-1.178107 0.741771,-0.741771 1.134473,-1.70171 0.436336,-0.959939 0.436336,-2.094413 V 8.7267194 q 0,-0.6981376 0.698138,-0.6981376 0.261801,0 0.436336,0.1745344 0.218168,0.1745344 0.218168,0.5236032 z"
         id="path843" />
    </g>
  </g>
</svg>
